<?xml version="1.0" encoding="utf-8"?>
<!-- Generator: Adobe Illustrator 24.1.0, SVG Export Plug-In . SVG Version: 6.00 Build 0)  -->
<svg version="1.1" id="Layer_1" xmlns="http://www.w3.org/2000/svg" xmlns:xlink="http://www.w3.org/1999/xlink" x="0px" y="0px"
	 viewBox="0 0 57.7 87.3" style="enable-background:new 0 0 57.7 87.3;" xml:space="preserve">
<g>
	<path d="M5.8,46.8h1.9c0,0.1,0,0.2,0,0.3c0,0.8,0.6,1.4,1.4,1.4c0.8,0,1.4-0.6,1.4-1.4c0-0.1,0-0.2,0-0.3h1.9v-1.7H5.8V46.8z"/>
	<path d="M27.7,46.8h2c0,0.1,0,0.2,0,0.3c0,0.8,0.6,1.4,1.4,1.4c0.8,0,1.4-0.6,1.4-1.4c0-0.1,0-0.2,0-0.3h1.7v-1.7h-6.5V46.8z"/>
	<path d="M51.7,40.5c0.1-0.3,1-1,1.7-1.5c1.6-1.2,3.9-2.8,4.2-5.4c0.3-2.2-0.6-3.7-1.3-5.1c-0.5-0.9-0.9-1.7-1-2.7
		c-0.1-1.2,0.4-2.4,0.9-3.7c0.6-1.5,1.3-3.2,1.1-5.2c-0.4-4.7-4-6.8-6.8-7.1c-1-0.1-1.4-0.2-1.6-0.4c0-0.1-0.1-0.5-0.2-0.8
		c-0.5-2.1-1.6-7-6.8-7.6c-1.9-0.2-3.6,0.1-4.7,0.4c-1.4,0.4-2.6,1.1-3.2,1.8l1.3,1.1c1-1.1,3.7-2,6.5-1.7c4,0.5,4.9,4.3,5.4,6.3
		c0.2,0.7,0.3,1.1,0.5,1.4c0.5,0.7,1.3,0.9,2.8,1c0.8,0.1,4.9,0.8,5.4,5.6c0.1,1.6-0.4,3-1,4.4c-0.6,1.4-1.2,2.8-1.1,4.4
		c0.1,1.3,0.6,2.4,1.2,3.4c0.7,1.2,1.3,2.4,1.1,4.1c-0.2,1.9-2,3.1-3.5,4.2c-1.2,0.9-2.2,1.6-2.4,2.5l-0.3,1.7l-0.4,4.7
		c0,0-0.1,0-0.1,0l-5.3-2.7c-0.5-3.3-0.5-6.6-0.5-8.4c0,0,0,0,0-0.1c0.5,0.1,0.9,0.2,1.4,0.2c1.4,0,2.7-0.5,3.9-1.6l-1.1-1.3
		c-1.5,1.3-3.2,1.5-5,0.6c-1.5-0.8-2.7-2.1-3.6-3c0.8-0.6,1.7-1.5,2.5-3.2l-1.5-0.7c-1,2-2.3,3.1-3.5,3c-0.5,0-1-0.3-1.1-0.7
		c-0.3-1,0.1-2.3,0.6-3.5c0.5-1.2,0.9-2.4,0.5-3.5c-0.4-1.3-1.5-2.1-2.9-2.3c-2.2-0.2-4.7,1.2-5.9,3.2l1.5,0.8c1-1.7,3-2.5,4.3-2.4
		c0.8,0.1,1.3,0.5,1.5,1.1c0.2,0.5-0.2,1.4-0.5,2.4c-0.5,1.4-1.1,3-0.6,4.6c0.3,1.1,1.3,1.8,2.6,1.9c0.1,0,0.2,0,0.3,0
		c0.2,0,0.5,0,0.8-0.1c0,0,0.1,0.1,0.1,0.1c0.9,1,2.4,2.7,4.3,3.6c0,0.2,0,0.5,0,0.7c0,1.8,0,4.6,0.4,7.5l-5.2-2.7l0,0
		c-1.6-1.3-3.6-2.1-5.7-2.1c-4,0-7.4,2.6-8.6,6.2c-0.7-0.6-1.5-1-2.5-1c-1,0-1.8,0.4-2.5,1c-1.2-3.6-4.6-6.2-8.5-6.2
		c-1.1,0-2.1,0.2-3.1,0.5c0.2-2.6,1.1-6.1,3.2-9C11,27.1,14.4,24,20.3,24h0.7l0.2-0.6c0.1-0.3,0.2-0.6,0.2-0.9
		c0.9-3.9,2.1-8.8,9.1-8.8v-1.7c-3.6,0-6.4,1.2-8.2,3.6c-1.5,2-2.1,4.5-2.6,6.5c0,0.1,0,0.2-0.1,0.3c-6.2,0.2-9.9,3.5-11.9,6.3
		c-0.1,0.1-0.1,0.2-0.2,0.2c-2-0.6-4.4-2.6-5.3-5.1c-0.8-2.3-0.3-4.7,1.5-7l0.4-0.5l-0.4-0.5c-0.9-1.2-0.9-3,0-4.1
		c1-1.2,2.8-1.3,4.8-0.2l0.9,0.5l0.3-1c1.3-4.9,9.6-9.2,13.1-9.2V0C19.1,0,10.8,4,8.5,9.5c-2.4-1-4.6-0.6-6,1
		c-1.3,1.6-1.5,3.9-0.4,5.7c-2.3,3.3-2,6.2-1.3,8.1c1.1,2.9,3.7,5.1,6,6c-1.8,3.2-2.4,6.7-2.4,9.1C1.7,41.1,0,43.9,0,47.1
		c0,3.6,2.1,6.6,5.1,8.1c-1.5,5,2.1,12.9,5.6,20.5c2.3,5.1,5.2,11.5,11.2,11.5h0.3h0.6h0.8h0.3h0.6v0c3.4-0.4,8.8-4.4,12.9-8.4
		c2.6-2.5,4.8-5.1,6.4-7.6c1.9-2.9,2.8-5.4,2.8-7.6h-1.7c0,3.5-3.2,8.7-8.6,13.9c-4.3,4.2-9.2,7.4-11.8,7.9v-4.2h-1.7v4.2h-0.6h-0.3
		c-0.3,0-0.7,0-1-0.1V74.3h-1.7v10.6c-0.7-0.3-1.3-0.8-1.8-1.3V78h-1.7v3.7c-1.3-1.9-2.4-4.3-3.5-6.6c-3.3-7.3-6.8-14.9-5.5-19.3
		C7.4,56,8.2,56.1,9,56.1c1.8,0,3.6-0.6,5-1.5c0.8,2.6,3.2,4.5,6.1,4.5c2.8,0,5.3-1.9,6.1-4.5c1.4,1,3.1,1.5,5,1.5c5,0,9-4,9-9
		c0-1.4-0.3-2.6-0.8-3.8l3.1,1.6c0.6,3.5,1.9,6.8,4.3,8.6l1-1.4c-1.7-1.3-2.7-3.7-3.4-6.3l4.5,2.3H49c3.3,0,6.1,2.7,6.1,6.1
		s-2.7,6.1-6.1,6.1h-2.7V62H49c4.3,0,7.7-3.5,7.7-7.7c0-3.6-2.4-6.6-5.7-7.5l0.4-4.7L51.7,40.5z M1.7,47.1c0-4,3.3-7.3,7.3-7.3
		s7.3,3.3,7.3,7.3s-3.3,7.3-7.3,7.3S1.7,51.2,1.7,47.1z M20.1,57.4c-2.3,0-4.3-1.7-4.6-4c1.6-1.6,2.6-3.8,2.6-6.3c0-0.1,0-0.1,0-0.2
		h0.1c0-1.1,0.9-2,2-2s2,0.9,2,2h0.1c0,0.1,0,0.1,0,0.2c0,2.4,1,4.7,2.6,6.3C24.4,55.7,22.4,57.4,20.1,57.4z M31.1,54.4
		c-4,0-7.3-3.3-7.3-7.3s3.3-7.3,7.3-7.3c4,0,7.3,3.3,7.3,7.3S35.2,54.4,31.1,54.4z"/>
	<path d="M49,56.9v1.7c2.4,0,4.3-1.9,4.3-4.3S51.4,50,49,50v1.7c1.4,0,2.6,1.2,2.6,2.6S50.5,56.9,49,56.9z"/>
	<polygon points="28.1,72 28.1,65.7 26.4,65.7 26.4,68 12.5,68 12.5,69.7 26.4,69.7 26.4,72 	"/>
</g>
</svg>
