<svg xmlns="http://www.w3.org/2000/svg" viewBox="0 0 557.11 109.61"><defs><style>.cls-1{fill:#ff921e;}.cls-2{fill:#3fa8f4;}.cls-3{fill:#333;}</style></defs><g id="Layer_2" data-name="Layer 2"><g id="Layer_1-2" data-name="Layer 1"><polygon class="cls-1" points="336.52 65.57 338.23 68.98 362.96 68.98 364.5 66.43 351.36 28.05 348.46 28.05 336.52 65.57"/><polygon class="cls-2" points="391.77 0.93 391.77 42.55 392.63 43.4 425.89 43.4 426.74 42.55 426.74 0.93 425.29 0 393.22 0 391.77 0.93"/><path class="cls-3" d="M297.68,26.34C297.68,15,291.93,4.17,284.12,0H271l-1.45.93V30.44C276.19,36.58,282,40,288.3,40,295.12,40,297.68,34.87,297.68,26.34Z"/><polygon class="cls-3" points="206.56 0.76 250.91 71.54 252.62 71.54 252.62 2.46 250.16 0 207.32 0 206.56 0.76"/><polygon class="cls-3" points="124.06 47.66 123.21 46.81 89.94 46.81 89.09 47.66 89.09 108.05 91.54 109.61 121.61 109.61 124.06 108.05 124.06 47.66"/><polygon class="cls-3" points="426.74 47.66 425.89 46.81 392.63 46.81 391.77 47.66 391.77 108.05 394.22 109.61 424.29 109.61 426.74 108.05 426.74 47.66"/><polygon class="cls-2" points="511.05 0.76 555.4 71.54 557.11 71.54 557.11 2.46 554.64 0 511.81 0 511.05 0.76"/><polygon class="cls-1" points="89.09 0.93 89.09 42.55 89.94 43.4 123.21 43.4 124.06 42.55 124.06 0.93 122.61 0 90.54 0 89.09 0.93"/><polygon class="cls-3" points="151.58 60.46 152.44 62.16 172.05 62.16 173.76 60.46 162.67 26.34 161.82 26.34 151.58 60.46"/><polygon class="cls-3" points="455.17 60.46 456.02 62.16 475.64 62.16 477.34 60.46 466.25 26.34 465.4 26.34 455.17 60.46"/><polygon class="cls-3" points="505.08 28.9 504.23 28.9 504.23 107.36 506.48 109.61 554.14 109.61 505.08 28.9"/><polygon class="cls-1" points="491.84 107.36 479.05 67.28 476.49 65.57 456.02 65.57 453.46 67.28 442.38 104.81 447.18 109.61 489.03 109.61 491.84 107.36"/><polygon class="cls-1" points="200.59 28.9 199.74 28.9 199.74 107.36 201.99 109.61 249.65 109.61 200.59 28.9"/><polygon class="cls-2" points="188.26 107.36 175.46 67.28 172.91 65.57 152.44 65.57 149.88 67.28 138.79 104.81 143.6 109.61 185.45 109.61 188.26 107.36"/><polygon class="cls-3" points="377.8 105.15 367.57 75.64 363.82 72.4 337.38 72.4 333.97 74.95 325.1 104.97 325.44 105.83 328.7 109.61 375.5 109.61 377.8 105.15"/><polygon class="cls-2" points="314.4 107.36 271.24 38.28 269.54 38.28 269.54 108.05 271.98 109.61 314.4 109.61 314.4 107.36"/><path class="cls-1" d="M56.25,99.38a10.24,10.24,0,1,1,10.23,10.23A10.26,10.26,0,0,1,56.25,99.38Z"/><path class="cls-3" d="M18.19,108.18C24.33,97.61,26.55,86.86,26.55,71V0H0V109.61H17.34Z"/><polygon class="cls-2" points="21.93 109.61 43.26 109.61 43.26 78.33 21.93 109.61"/></g></g></svg>