<svg xmlns="http://www.w3.org/2000/svg" viewBox="0 0 272.62 109.61"><g id="Layer_2" data-name="Layer 2"><g id="Layer_1-2" data-name="Layer 1"><polygon points="226.09 0 272.62 74.27 272.62 71.54 272.62 0 270.16 0 227.32 0 226.09 0"/><polygon points="137.06 46.81 136.21 46.81 102.94 46.81 102.09 46.81 102.09 109.61 104.54 109.61 134.61 109.61 137.06 109.61 137.06 46.81"/><polygon points="102.09 0 102.09 43.4 102.94 43.4 136.21 43.4 137.06 43.4 137.06 0 135.61 0 103.54 0 102.09 0"/><polygon points="167.07 62.16 168.44 62.16 188.05 62.16 190.31 62.16 178.67 26.34 178.24 24.93 167.07 62.16"/><polygon points="219.74 27.5 219.74 28.9 219.74 109.61 221.99 109.61 269.65 109.61 219.74 27.5"/><polygon points="204.97 109.61 190.92 65.57 188.91 65.57 168.44 65.57 166.38 65.57 153.37 109.61 159.6 109.61 201.45 109.61 204.97 109.61"/><path d="M69.25,99.38a10.24,10.24,0,1,1,10.23,10.23A10.26,10.26,0,0,1,69.25,99.38Z"/><path d="M27.19,108.18C33.33,97.61,35.55,86.86,35.55,71V0H0V109.61H26.34Z"/><polygon points="34.93 109.61 56.26 109.61 56.26 78.33 34.93 109.61"/></g></g></svg>