<svg xmlns="http://www.w3.org/2000/svg" viewBox="0 0 556.62 109.61"><g id="Layer_2" data-name="Layer 2"><g id="Layer_1-2" data-name="Layer 1"><polygon points="510.1 0 556.62 74.27 556.62 71.54 556.62 0 554.16 0 511.32 0 510.1 0"/><polygon points="503.75 27.5 503.75 28.9 503.75 109.61 506 109.61 553.66 109.61 503.75 27.5"/><polygon points="426.74 46.81 425.89 46.81 392.63 46.81 391.77 46.81 391.77 109.61 394.22 109.61 424.29 109.61 426.74 109.61 426.74 46.81"/><polygon points="391.77 0 391.77 43.4 392.63 43.4 425.89 43.4 426.74 43.4 426.74 0 425.29 0 393.22 0 391.77 0"/><polygon points="335.44 68.98 338.23 68.98 362.96 68.98 365.37 68.98 350.41 25.25 335.44 68.98"/><path d="M297.68,26.34C297.68,15,291.93,4.17,284.12,0H269.53V30.44C276.19,36.58,282,40,288.3,40,295.12,40,297.68,34.87,297.68,26.34Z"/><polygon points="206.09 0 252.62 74.27 252.62 71.54 252.62 0 250.16 0 207.32 0 206.09 0"/><polygon points="124.06 46.81 123.21 46.81 89.94 46.81 89.09 46.81 89.09 109.61 91.54 109.61 121.61 109.61 124.06 109.61 124.06 46.81"/><polygon points="89.09 0 89.09 43.4 89.94 43.4 123.21 43.4 124.06 43.4 124.06 0 122.61 0 90.54 0 89.09 0"/><polygon points="151.07 62.16 152.44 62.16 172.05 62.16 174.31 62.16 162.67 26.34 162.24 24.93 151.07 62.16"/><polygon points="199.74 27.5 199.74 28.9 199.74 109.61 201.99 109.61 249.65 109.61 199.74 27.5"/><polygon points="188.97 109.61 174.92 65.57 172.91 65.57 152.44 65.57 150.38 65.57 137.37 109.61 143.6 109.61 185.45 109.61 188.97 109.61"/><polygon points="379.35 109.61 366.44 72.4 363.82 72.4 337.38 72.4 334.72 72.4 323.73 109.61 328.7 109.61 375.5 109.61 379.35 109.61"/><polygon points="451.01 68.98 453.8 68.98 478.53 68.98 480.94 68.98 465.98 25.25 451.01 68.98"/><polygon points="494.92 109.61 482.01 72.4 479.38 72.4 452.95 72.4 450.29 72.4 439.3 109.61 444.27 109.61 491.07 109.61 494.92 109.61"/><polygon points="315.8 109.61 269.54 35.55 269.54 38.28 269.54 109.61 271.98 109.61 314.4 109.61 315.8 109.61"/><path d="M56.25,99.38a10.24,10.24,0,1,1,10.23,10.23A10.26,10.26,0,0,1,56.25,99.38Z"/><path d="M18.19,108.18C24.33,97.61,26.55,86.86,26.55,71V0H0V109.61H17.34Z"/><polygon points="21.93 109.61 43.26 109.61 43.26 78.33 21.93 109.61"/></g></g></svg>